<?xml version="1.0" encoding="UTF-8"?><svg id="Calque_1" xmlns="http://www.w3.org/2000/svg" xmlns:xlink="http://www.w3.org/1999/xlink" viewBox="0 0 103.64 91.72"><defs><style>.cls-1{fill:url(#Dégradé_sans_nom_2-4);}.cls-1,.cls-2,.cls-3,.cls-4,.cls-5,.cls-6,.cls-7,.cls-8,.cls-9,.cls-10,.cls-11,.cls-12{stroke-width:0px;}.cls-2{fill:url(#Dégradé_sans_nom_2-5);}.cls-3{fill:url(#Dégradé_sans_nom_13);}.cls-4{fill:url(#Dégradé_sans_nom_2-3);}.cls-5{fill:url(#Dégradé_sans_nom_6-2);}.cls-6{fill:url(#Dégradé_sans_nom_2-2);}.cls-7{fill:url(#Dégradé_sans_nom_2-6);}.cls-8{fill:url(#Dégradé_sans_nom_2);}.cls-9{fill:url(#Dégradé_sans_nom_6-5);}.cls-10{fill:url(#Dégradé_sans_nom_6-4);}.cls-11{fill:url(#Dégradé_sans_nom_6-3);}.cls-12{fill:url(#Dégradé_sans_nom_6);}</style><linearGradient id="Dégradé_sans_nom_13" x1="9.49" y1="45.86" x2="103.64" y2="45.86" gradientUnits="userSpaceOnUse"><stop offset="0" stop-color="#e51281"/><stop offset=".14" stop-color="#e21281"/><stop offset=".23" stop-color="#da1682"/><stop offset=".3" stop-color="#cb1b83"/><stop offset=".37" stop-color="#b72286"/><stop offset=".42" stop-color="#9d2c88"/><stop offset=".48" stop-color="#7d388c"/><stop offset=".48" stop-color="#793a8d"/><stop offset=".49" stop-color="#753a8d"/><stop offset=".57" stop-color="#584292"/><stop offset=".66" stop-color="#414796"/><stop offset=".75" stop-color="#314b99"/><stop offset=".86" stop-color="#284e9b"/><stop offset="1" stop-color="#254f9c"/></linearGradient><linearGradient id="Dégradé_sans_nom_2" x1="0" y1="31.8" x2="35.29" y2="31.8" gradientUnits="userSpaceOnUse"><stop offset="0" stop-color="#e51281"/><stop offset=".25" stop-color="#e21381"/><stop offset=".43" stop-color="#d81682"/><stop offset=".6" stop-color="#c81c84"/><stop offset=".75" stop-color="#b12486"/><stop offset=".89" stop-color="#942f89"/><stop offset="1" stop-color="#793a8d"/></linearGradient><linearGradient id="Dégradé_sans_nom_2-2" x1="15.49" y1="39.59" x2="41.76" y2="39.59" xlink:href="#Dégradé_sans_nom_2"/><linearGradient id="Dégradé_sans_nom_6" x1="58.86" y1="41.31" x2="79.36" y2="41.31" gradientUnits="userSpaceOnUse"><stop offset=".08" stop-color="#793a8d"/><stop offset=".19" stop-color="#663e90"/><stop offset=".39" stop-color="#4a4595"/><stop offset=".6" stop-color="#354a99"/><stop offset=".8" stop-color="#294d9b"/><stop offset="1" stop-color="#254f9c"/></linearGradient><linearGradient id="Dégradé_sans_nom_2-3" x1="28.99" y1="52.78" x2="33.98" y2="52.78" gradientTransform="translate(7.64 11.79) rotate(6.54)" xlink:href="#Dégradé_sans_nom_2"/><linearGradient id="Dégradé_sans_nom_2-4" x1="28.78" y1="52.78" x2="34.18" y2="52.78" gradientTransform="translate(7.64 11.79) rotate(6.54)" xlink:href="#Dégradé_sans_nom_2"/><linearGradient id="Dégradé_sans_nom_6-2" x1="68.41" y1="74.48" x2="72.59" y2="74.48" xlink:href="#Dégradé_sans_nom_6"/><linearGradient id="Dégradé_sans_nom_6-3" x1="68.21" y1="74.48" x2="72.8" y2="74.48" xlink:href="#Dégradé_sans_nom_6"/><linearGradient id="Dégradé_sans_nom_2-5" x1="20.92" y1="96.46" x2="29.27" y2="96.46" gradientTransform="translate(-14.72 -18.04) rotate(-9.16)" xlink:href="#Dégradé_sans_nom_2"/><linearGradient id="Dégradé_sans_nom_2-6" x1="20.32" y1="96.45" x2="29.87" y2="96.45" gradientTransform="translate(-14.72 -18.04) rotate(-9.16)" xlink:href="#Dégradé_sans_nom_2"/><linearGradient id="Dégradé_sans_nom_6-4" x1="70.69" y1="69.58" x2="78.65" y2="69.58" xlink:href="#Dégradé_sans_nom_6"/><linearGradient id="Dégradé_sans_nom_6-5" x1="70.08" y1="69.58" x2="79.26" y2="69.58" xlink:href="#Dégradé_sans_nom_6"/></defs><path class="cls-3" d="m100.56,36.57c-1.2,1.22-2.59,2.21-4.35,2.52-.47.08-.97.01-1.53.01,1.36-2.84,2.1-5.71,2.26-8.71.22-4.21-.3-8.29-2.26-12.12-1.18-2.32-1.52-4.78-1.03-7.34.54-2.83,1.89-5.28,3.71-7.49.86-1.05,1.83-2.01,2.75-3.02,0,0-.05-.04-.09-.05-.35-.04-.69-.07-1.04-.1-3.9-.27-7.59.43-10.99,2.36-3.58,2.04-6.26,4.89-8.08,8.57-1.96,3.98-4.86,7.17-8.89,9.28-.76.4-1.57.69-2.41,1.05-.08-.88-.13-1.65-.23-2.41-.25-1.89-.77-3.69-1.93-5.25-.33-.44-.75-.83-1.12-1.24-.08,1.47-.5,2.77-1.1,4.01-.65,1.34-1.4,2.64-2.04,3.98-.65,1.36-1.64,2.44-2.75,3.45-1.41,1.28-2.79,2.58-4.12,3.94-.61.61-1.07,1.37-1.55,2-.4-.35-.75-.75-1.18-1-.48-.28-.54-.6-.39-1.05.08-.23.13-.46.23-.68.59-1.29,1.14-2.61,1.81-3.87,2.89-5.5,6.36-10.62,10.65-15.18,1.57-1.67,3.35-3.04,5.62-3.72.53-.16,1.02-.44,1.5-.71.46-.26.71-.69.76-1.22.05-.67-.16-.86-.78-.58-.85.39-1.71.79-2.51,1.26-3.46,2.03-6.21,4.81-8.66,7.9-3.88,4.89-6.88,10.29-9.59,15.86-.39.79-.81,1.16-1.71,1.09-.4-.03-.58-.12-.74-.47-.89-1.93-1.75-3.88-2.73-5.77-2.84-5.48-6.29-10.55-10.86-14.81-1.8-1.68-3.68-3.27-5.96-4.31-.56-.26-1.17-.45-1.77-.61-.59-.15-.82.09-.59.65.15.36.38.78.7.97.64.39,1.34.74,2.06.96,1.09.32,2.11.75,2.98,1.46,1.07.87,2.16,1.74,3.13,2.73,3.55,3.64,6.41,7.77,8.75,12.23,1.17,2.25,2.11,4.61,3.15,6.92.21.46.13.79-.34,1.07-.38.22-.69.55-1.06.85-.35-.55-.69-1.11-1.04-1.65-1.12-1.72-2.24-3.45-3.8-4.82-3.24-2.84-6.8-5.26-10.53-7.43-3.92-2.28-7.92-4.42-11.86-6.66-2.01-1.14-4-2.33-5.63-3.99-.96-.97-1.69-2.07-1.75-3.46-.03-.66.12-1.33.19-1.98-1.43,1.06-2.4,3.29-2.28,5.14.12,1.81.85,3.37,1.89,4.82,1.8,2.5,4.18,4.4,6.7,6.15,7.19,5,13.61,10.82,19.2,17.52,2.8,3.36,5.29,6.94,7.03,10.96.62,1.43,1.25,7.65,1.11,9.02-.54,11.57-4.68,23.24-12.55,27.88-2.67,1.66-5.56,2.47-8.73,1.92-3.82-.66-6.62-2.8-8.6-5.98-2.54-4.09-3.04-8.53-2.16-13.16.24-1.27.59-2.53.91-3.88-.09.08-.13.09-.14.12-.13.24-.24.49-.38.73-2.09,3.8-2.99,7.82-2.44,12.13.47,3.68,2.24,6.94,4.94,9.61,2.5,2.78,14.23,8.29,23.53-3.39-.49,1.03-.98,1.93-1.46,2.67-2.95,4.61-5.94,6.04-11.24,7.41-1.79.46-5.72.65-5.85.7.1.09,2.08.85,4.59,1.21,1.26.18,4.02.3,6.36-.26,3.94-.95,6.37-2.91,8.64-6.12,1.86-2.62,2.89-5.6,3.74-8.65.45-1.6.88-3.2,1.33-4.8.03-.09.06-.19.13-.38.87,1.25,1.82,2.31,3.09,3.24-.42-.74-.8-1.37-1.14-2.02-1.03-1.93-1.28-3.99-.97-6.13.17-1.17.58-3.26.57-3.23.39,1.02,1.22,3.23,2.22,4.15.53.49.8.47,1.3-.04.8-.82,1.71-3.57,1.82-3.97.14.89.27,1.26.41,2.15.86,5.21-1.66,8.83-1.84,9.09,1.24-.81,2.09-2.1,2.99-3.33.17.66.32,1.24.48,1.82.75,2.75,1.3,5.43,2.6,8.33,1.47,3.26,3.29,6.34,6.5,8.11,5.27,2.91,10.12,2.03,11.85,1.82,1.04-.13,3.23-.88,3.32-.96-.11-.06-11.29.06-16.31-7.27-.33-.49-.7-1.08-1.09-1.76,9.01,9.37,19.65,4.29,22.01,1.66,2.7-2.67,4.47-5.92,4.94-9.61.55-4.3-.35-8.33-2.44-12.13-.13-.24-.25-.49-.38-.73-.01-.03-.05-.04-.14-.12.32,1.35.67,2.61.91,3.88.88,4.63.38,9.07-2.16,13.16-1.98,3.19-4.78,5.33-8.6,5.98-3.17.55-6.01-.34-8.73-1.92-8.8-5.12-10.65-15.06-12.31-27.09-.26-1.9-.03-8.2.33-9.58.68-2.59,1.91-4.83,3.96-6.69,1.87-1.7,3.66-3.51,4.55-6,1.88,1.24,2.37,3.11,2.51,5.23.31-.23.56-.4.8-.6,2.31-1.94,3.91-4.39,5.37-6.97.39-.69.89-1.36,1.47-1.91,2.4-2.28,5.37-2.99,8.62-2.87.63.02,1.26.11,1.93.16-.07.12-.08.16-.1.18-.05.05-.11.09-.16.13-1.21.96-2.01,2.19-2.42,3.64-.69,2.47-.39,4.88.48,7.25.22.59.52,1.17.65,1.78.69,3.21.52,6.36-.86,9.39-.04.08-.04.17-.07.31,2.02-.58,3.98-1.14,5.68-2.44-.03.15-.03.26-.07.34-.24.57-.44,1.15-.74,1.69-1.51,2.78-3.74,4.94-6.27,6.81-3.91,2.9-8.3,4.9-12.88,6.52-.82.29-1.65.56-2.47.85,4.63-.7,9.13-1.84,13.47-3.55,6.73-2.64,12.69-6.4,17.49-11.78,3.29-3.69,5.81-7.82,7.24-12.54.07-.23.12-.46.18-.68-1.03,1.16-2,2.35-3.08,3.44Z"/><path class="cls-8" d="m35.29,61.8c-.16-.16-.34-.22-.52-.27-2.92-.87-5.71-2.02-8.35-3.52-6-3.41-10.71-8.12-14.54-13.74-4.17-6.12-6.4-12.84-6.63-20.19-.21-6.43.86-12.68,2.87-18.78.37-1.13.81-2.25,1.26-3.48-.13.15-.18.21-.23.28-1.7,2.33-3.17,4.79-4.42,7.38C2.5,14.05.93,18.83.29,23.89c-.1.78-.19,1.55-.29,2.33v4.42c.1.74.2,1.48.3,2.21.84,5.96,3.31,11.18,7.68,15.39,6.76,6.52,14.82,10.82,24.06,12.98,1.07.25,2.16.39,3.24.58Z"/><path class="cls-6" d="m23.57,46.04c1.58,1.51,3.41,2.76,5.55,3.41,4.05,1.24,8.11,2.41,12.17,3.61.12.04.25.04.48.08-.21-.64-.34-1.22-.59-1.74-1.11-2.32-2.48-4.48-4.19-6.42-1.87-2.13-4.08-3.72-6.93-4.46-2.12-.55-4.21-1.25-6.22-2.1-3.23-1.36-5.57-3.66-6.79-6.95-.65-1.75-.92-3.57-1.01-5.43-.04.03-.08.05-.09.07-.04.11-.08.23-.11.34-.42,1.67-.44,3.37-.17,5.05.92,5.73,3.71,10.53,7.91,14.54Z"/><path class="cls-12" d="m74.22,34.63c.08-.14.16-.28.31-.53-.28.14-.44.2-.58.28-1.25.68-2.21,1.67-3.05,2.78-1.59,2.12-3.34,4.05-5.41,5.75-2.85,2.34-4.65,5.48-6.19,8.75-.21.45-.28.96-.44,1.51.22-.05.33-.07.42-.1,4.08-1.2,8.16-2.38,12.22-3.62,3.27-.99,5.47-3.17,6.71-6.24.85-2.12.76-4.36.5-6.59-.17-1.49-.46-3-.15-4.49.19-.92.54-1.81.8-2.66-1.1.99-2.15,2.15-2.46,3.71-.28,1.41-.38,2.84-.55,4.27-.16,1.38-.36,2.76-1.17,3.95-.57.83-1.27,1.51-2.32,1.72-.84.17-1.6-.32-1.75-1.15-.2-1.07-.1-2.13.46-3.08.85-1.43,1.76-2.84,2.64-4.25Z"/><path class="cls-4" d="m32.21,68.16c.35.44-.79,2.98.94,2.73,1.21-.17,2.15-1.52,2.24-2.82.17-2.49-2.26-4.12-4.05-3.07-1.63.95-.14,1.87.88,3.15Zm2.05-1.32c.45,1.03.05,2.24-.91,2.72s-.06-.85-.51-1.88-1.43-1.67-1.14-1.84c.93-.54,2.11-.03,2.56,1Z"/><path class="cls-1" d="m32.93,71.11c-.28,0-.5-.08-.67-.24-.4-.4-.31-1.14-.23-1.8.03-.28.09-.7.02-.79-.2-.25-.42-.5-.64-.73-.58-.63-1.08-1.17-.99-1.76.05-.36.32-.67.81-.96.85-.5,1.89-.47,2.79.09,1.05.65,1.65,1.87,1.56,3.17-.09,1.29-1.03,2.8-2.41,3-.09.01-.17.02-.25.02Zm-.56-3.08c.17.21.12.6.06,1.09-.07.54-.15,1.21.12,1.46.11.11.31.15.57.11,1.14-.16,1.98-1.49,2.06-2.63.08-1.15-.45-2.23-1.37-2.8-.77-.47-1.65-.51-2.37-.08-.38.22-.58.44-.62.67-.06.4.4.9.89,1.43.22.24.45.49.66.75h0Zm.67,1.83c-.07,0-.14-.02-.2-.06-.2-.14-.16-.42-.11-.77.05-.38.11-.85-.07-1.26-.21-.48-.56-.89-.81-1.18-.27-.31-.43-.5-.39-.7.01-.09.07-.16.15-.21.45-.26.99-.32,1.5-.15.59.19,1.08.64,1.34,1.24h0c.5,1.12.05,2.46-1.01,2.98-.12.06-.27.12-.4.12Zm-1.16-3.88c.06.09.17.22.27.34.27.31.63.74.87,1.28.23.51.15,1.07.1,1.48-.02.12-.04.28-.03.37.03,0,.09-.03.17-.07.86-.43,1.23-1.53.82-2.45h0c-.22-.49-.62-.86-1.1-1.02-.38-.12-.76-.1-1.1.07Z"/><path class="cls-5" d="m71.59,71.47c-1.94-.46-3.79,1.78-2.99,4.06.41,1.19,1.64,2.18,2.81,1.99,1.67-.27.14-2.54.35-3.05.62-1.5,1.59-2.58-.17-3Zm.2.53c.55.7-.53.85-.76,2.43-.16,1.09.81,2.79-.21,2.63s-1.87-2.01-1.7-3.1,2.08-2.72,2.68-1.96Z"/><path class="cls-11" d="m71.11,77.75c-1.21,0-2.32-1.06-2.7-2.14-.42-1.21-.17-2.53.66-3.45.69-.77,1.65-1.1,2.57-.88.58.14.92.35,1.08.67.24.5-.06,1.11-.41,1.82-.12.24-.24.5-.36.78-.04.09.09.49.17.75.2.63.45,1.42.13,1.94-.16.26-.43.42-.8.48-.11.02-.22.03-.33.03Zm-.03-6.13c-.62,0-1.24.29-1.71.81-.73.81-.95,1.98-.58,3.04.36,1.04,1.49,2.03,2.59,1.85.26-.04.43-.14.53-.29.23-.37,0-1.06-.17-1.61-.15-.46-.25-.8-.16-1.03.12-.28.25-.55.37-.8.3-.62.56-1.15.4-1.47-.07-.16-.25-.28-.54-.38.05.04.1.08.14.14.38.48.14.81-.11,1.16-.23.31-.51.71-.61,1.42-.06.39.05.88.14,1.32.12.6.22,1.08-.03,1.34-.12.13-.31.18-.55.14-1.11-.18-2.05-2.11-1.87-3.33.13-.87,1.23-2.04,2.14-2.28.05-.01.1-.02.15-.03-.04,0-.08,0-.12,0Zm.28.4c-.06,0-.12,0-.2.03-.74.2-1.75,1.25-1.85,1.95-.15,1.01.65,2.73,1.54,2.87.1.01.17,0,.2-.02.1-.11,0-.61-.08-.98-.1-.47-.21-1-.14-1.46.12-.81.44-1.26.68-1.6.25-.35.3-.44.12-.68h0s-.09-.12-.27-.12Z"/><path class="cls-2" d="m27.81,67.8c-2.62-.7-5.76,1.6-6.39,4.34s.98,5.52,3.6,6.22c2.62.7,1.42-2.24,2.05-4.97s3.37-4.88.74-5.59Zm-2.67,10.05c-2.35-.63-3.8-3.13-3.23-5.58s3.63-5.15,5.78-3.96c1.6.88-.45,2.52-1.02,4.97s.18,5.03-1.53,4.57Z"/><path class="cls-7" d="m25.71,79.07c-.25,0-.54-.04-.85-.13-2.93-.79-4.74-3.9-4.03-6.95.37-1.62,1.53-3.14,3.09-4.08,1.33-.8,2.77-1.05,4.04-.71h0c.76.2,1.23.55,1.45,1.04.36.83-.14,1.76-.71,2.83-.39.74-.84,1.57-1.04,2.43-.19.82-.2,1.68-.21,2.45-.02,1.21-.04,2.26-.75,2.8-.27.2-.59.3-.98.3Zm-.42-1.81c.19.05.25.03.25.03.17-.13.21-1.05.24-1.65.04-.76.08-1.62.29-2.5.23-.98.67-1.84,1.03-2.53.75-1.44.67-1.57.29-1.78-.68-.38-1.44-.18-1.96.05-1.35.6-2.62,2.12-2.94,3.52-.5,2.13.76,4.31,2.79,4.86h0Z"/><path class="cls-10" d="m74.76,69.27c1.49,1.82.96,6.92,2.7,5.36s1.47-7.09-.02-8.91c-1.49-1.82-4.56-1.97-6.3-.4s2.13,2.14,3.63,3.96Zm0,.04c-1.34-1.63-4.68-2.39-3.79-3.69,1.2-1.75,4.87-1.74,6.21-.11s1.55,7.37,0,8.78c-1.13,1.02-1.08-3.35-2.42-4.98Z"/><path class="cls-9" d="m76.88,75.53c-.11,0-.21-.02-.32-.05-.78-.26-.99-1.3-1.26-2.73-.15-.75-.3-1.57-.55-2.23-.13-.33-.29-.61-.46-.83h0c-.43-.52-1.14-.97-1.81-1.37-.12-.07-.23-.13-.34-.19-1.05-.58-1.95-1.08-2.05-1.93-.05-.46.16-.91.63-1.34.98-.88,2.35-1.32,3.77-1.22,1.37.1,2.61.72,3.41,1.69,1.7,2.07,1.95,7.95-.04,9.75-.33.3-.66.45-.98.45Zm-1.03-5.53c.3.71.51,1.54.69,2.29.11.45.25,1.02.38,1.36,1.05-1.46.95-6.33-.21-7.76-.53-.65-1.65-1.05-2.84-.99-1.08.05-1.98.44-2.41,1.05-.03.04-.04.08-.04.09.06.26.9.76,1.46,1.1.07.04.14.08.21.13.77.43,1.58.93,2.14,1.61h0c.26.31.46.7.62,1.12Z"/></svg>